<svg  viewBox="0 0 511.94 269.73" xmlns="http://www.w3.org/2000/svg"><path d="m511.01 253.33c-1.97-6.37-10.49-11.68-16.74-15.05-45.26-23.37-99.04-5.83-136.9-1.26-9.82 1.18-19.98.97-30.23-.55 4.86-15.61-9.6-30.5-23.27-21.88-11.66 7.17-11.5 25.24 5.86 33.73-3.99 3.85-7.29 5.92-12.61 7.08-6.16 1.56-11.38-.04-15.98-4.93-16.6-17.6-15.43-64.95 3.63-109.83 4.36-10.46 8.39-19.47 16.48-36.17 27.82-15.1 67.1-41.03 78.33-70.75 2.92-8.19 5.56-18.8.84-26.18-3.67-5.63-10.28-8-16.11-7.46-27.01 2.35-51.27 34.91-65.52 57.84-8.07 13-12.91 22.2-14.8 25.51 7.55-2.74 14.84-5.99 21.5-9.32 17.25-8.59 25.42-22.04 26.14-22.85 12.9-18.64 40.89-47.73 35.96-25.55-8.74 38.12-88.5 84.77-160.59 96.25.64-2.5 5.24-22.43 11.8-45.66 21.88-5.63 47.08-16.69 45.53-39.21-.53-5.61-2.14-10.24-7.46-14.33-8.41-5.32-19.45-2.43-19.9-1.98-8.18 2.57-15.09 6.62-20.49 12.14-9.72 9.87-16.49 21.12-20.41 34.82-29.62 5.56-56.77 12.65-80.07 19.9-33.17 10.58-78 33.09-98.11 61.13-8.47 11.55-15.66 25.71-17.75 40.14-2.17 21 20.36 22.94 24.87 8.39 5.49-17.85 2.67-74.93 142.67-110.33 11.09-2.55 14.69-3.1 23.23-4.81-5.21 16.02-5.8 25.64-11.72 45.2-11.26 2.36-22.51 5.02-33.52 7.93-83.3 21.97-91.14 69.08-93.13 71.38-.16 1.59-9.72 31.88 9.15 44.52 17.42 11.87 58.96 10.49 86.05-12.35 9.02-7.63 17.12-16.82 23.99-27.36 6.83-10.5 12.82-22.13 17.75-34.61 3.16-8.01 5.99-16.27 8.73-24.71-5.78 1.73-12.52 3.75-19.23 5.9-6.79 2.15-12.31 7.21-15.09 13.79-10.07 23.91-25.77 51.33-47.98 64.72-7.97 4.85-15.35 7.55-21.92 7.97-14.89 1.02-28.5-1.05-28.5-16.7 0-63.57 113.79-80.53 166.53-95.75 11.2-3.2 22.6-6.86 33.22-11.51-55.75 131.64 25.59 174.04 55.06 131.08 15.72 3.89 39.08 1.94 54.72-1.77 30.33-7.25 35.07-9.69 47.98-10.84l5.9-.51c11.71-1.01 29.69 2.05 39.63 9.4 18.46 12.35 21.2 21.8 31.49 21.8 1.56 0 2.99-.25 4.22-.76 4.12-1.5 6.14-4.79 6.24-4.89 2.07-3.99 1.65-6.94.53-10.76m-284.67-199.38c3.21-8.38 6.7-15.92 14.84-19.98 1.86-.93 3.88-1.26 6.03-1.01.38.04 1.1.25 2.36.89 1.85 1.75 8.45 16.27-25.89 27.53.97-2.83 1.86-5.32 2.66-7.43m90.81 179.69c0 .25-.04.51-.08.76-1.58-.73-7.04-2.13-8.85-5.94-1.48-3.71 6.3-9.42 8.6.17.51 2.43.56 2.18.33 5.01" fill="#fff"/></svg>