<svg  viewBox="0 0 511.98 184.53"  xmlns="http://www.w3.org/2000/svg"><g fill="#90a4ae"><path d="m284.95 129.03-13.47-30.73-12.64 30.73-23.35-53.26h8.8l14.36 33.6c1.29-3.24-4.66 11.73 12.57-31.67 18.52 43.4 12.13 28.43 13.51 31.67l13.42-33.6h8.7z"/><path d="m347.76 96.51h18.61v7.23h-18.61v15.79h22.6v7.23c-7.38 0-23.31 0-30.58 0v-50.99h30.58v7.16h-22.6z"/><path d="m432.13 115.83h-18.13l-4.33 10.93h-8.8l22.19-53.31 22.12 53.31h-8.73zm-2.88-7.13-6.19-15.54-6.19 15.52h12.38z"/><path d="m511.98 126.76h-8.99l-12.84-17.24h-5.83v17.24h-7.98v-50.99c14.94 0 22.2-1.23 27.85 5.08 6.65 7.3 5.77 23.36-5.9 27.49zm-20.55-24.4c11.74 0 10.89-12.94 7.35-16.71-3.39-3.86-9.46-2.34-14.48-2.68v19.36h7.13z"/></g><path d="m349.26 173.13c-2.24-7.38-19.43-15.65-34.57-17.31-36.44-5.09-61.27 10.19-91.02 5.78 3.28-10.4-6.3-20.89-15.93-14.96-7.94 4.89-7.92 17.22 3.99 23.09-3.04 2.94-5.43 4.16-8.63 4.84-4.21 1.06-7.78-.02-10.93-3.38-8.94-9.46-8.63-29.17-6.91-42.23 2.49-19.35 11.58-38.88 20.72-57.51 15.72-8.63 29.69-17.32 41.97-30.87 5.49-5.83 9.38-11.7 11.58-17.5 2.62-7.4 4.34-16.73-2.35-20.89-2.54-1.67-5.27-2.37-8.1-2.1-24.1 2.19-43.67 37.36-54.88 56.98 13.71-5 24.37-10.15 32.52-21.88l.05-.1c7.16-10.33 12.2-15.28 18.47-20.5.29-.24.58-.44.92-.6 3.07-1.69 4.16-2.32 4.93-1.45 1.02 1.02.56 3.77.22 5.15-5.97 26.18-61.44 58.13-109.71 65.81.96-3.76 3.84-16.31 8.1-31.23 14.95-3.87 32.19-11.4 31.14-26.81-1.53-15.95-18.86-11.44-18.86-11.14-14.89 4.62-24.28 19.14-27.95 32.1-51.83 9.5-126.08 30.86-133.94 82.76-1.41 14.67 13.91 15.43 16.95 5.78 3.29-10.98 2.13-35.26 48.83-58.34 20.96-10.28 42.55-16.07 64.55-20.4-3.76 11.69-3.95 17.67-8 30.85-35.81 7.54-77.17 19.68-87.1 56.38-1.45 5.36-2.05 15.1 1.02 21.71 5.89 13.02 27.76 13.06 42.79 9.31 31.07-8.22 46.46-39.67 56.28-70.42-3.94 1.16-8.56 2.56-13.15 4.04-4.64 1.47-8.41 4.93-10.32 9.43-6.86 16.26-17.64 35.11-32.78 44.22-5.44 3.31-10.47 5.15-14.99 5.46-16.24 1.11-23.07-4.45-17.72-21.25 13.35-41.57 94.34-46 134.73-63.44-4.16 9.79-7.28 19-9.31 27.39-2.32 9.57-3.53 18.37-3.65 26.13-.27 17.21 5.04 37.14 19.92 44.53 10.56 5.15 23.87 1.39 30.7-8.44 33.68 8.42 68.09-18.56 96.48-5.22 5.76 2.51 13.55 9.4 18.11 13.76 2.27 2.15 4.3 3.36 6.21 3.7 1.63.28 3.3.31 4.86-.31 2.81-1.04 4.16-3.24 4.25-3.34 1.22-2.46 1.32-5.03.51-7.58m-194.54-136.28c2.17-5.72 4.62-10.86 10.18-13.63 1.28-.63 2.66-.85 4.11-.7.27.05.75.19 1.6.6.56.51.94 1.52 1.09 2.93.59 8.29-10.88 13.24-18.78 15.86.64-1.89 1.27-3.59 1.8-5.06m62.06 122.83c0 .17-.02.34-.05.51-1.46-.67-4.63-1.32-6.04-4.04-.4-.9.02-1.88.65-2.51 2.23-2.24 5.87-.47 5.44 6.04" fill="#86d6cb"/></svg>