<?xml version="1.0" encoding="utf-8"?>
<!-- Generator: Adobe Illustrator 21.0.0, SVG Export Plug-In . SVG Version: 6.00 Build 0)  -->
<svg version="1.1" id="Layer_1" xmlns="http://www.w3.org/2000/svg" xmlns:xlink="http://www.w3.org/1999/xlink" x="0px" y="0px"
	 viewBox="0 0 200 200" enable-background="new 0 0 200 200" xml:space="preserve">
<path fill="#FFFFFF" stroke="#FFFFFF" stroke-width="2" stroke-miterlimit="10" d="M27.6,89.9v20.2h-3.2V81l23.8,23.1
	c0-0.6,0-1.2,0-1.9V82.1h3.1v29L27.5,88C27.6,88.6,27.6,89.3,27.6,89.9"/>
<polygon fill="#FFFFFF" stroke="#FFFFFF" stroke-width="2" stroke-miterlimit="10" points="167.5,110.2 164.3,110.2 164.3,84 
	155.3,84 155.3,81 176.5,81 176.5,84 167.5,84 "/>
<line fill="none" stroke="#FFFFFF" stroke-width="4" stroke-miterlimit="10" x1="0" y1="0" x2="200" y2="200"/>
<line fill="none" stroke="#FFFFFF" stroke-width="4" stroke-miterlimit="10" x1="0" y1="200" x2="200" y2="0"/>
<polygon fill="none" stroke="#FFFFFF" stroke-width="4" stroke-miterlimit="10" points="81.2,30.4 100,50 118.8,30.4 109.9,22 
	90.1,22 81.2,30.4 81.2,30.4 "/>
<rect x="84.5" y="145.5" transform="matrix(0.7071 0.7071 -0.7071 0.7071 142.6335 -23.3478)" fill="none" stroke="#FFFFFF" stroke-width="4" stroke-miterlimit="10" width="30" height="30"/>
</svg>
