<?xml version="1.0" encoding="utf-8"?>
<!-- Generator: Adobe Illustrator 21.0.0, SVG Export Plug-In . SVG Version: 6.00 Build 0)  -->
<svg version="1.1" id="Layer_1" xmlns="http://www.w3.org/2000/svg" xmlns:xlink="http://www.w3.org/1999/xlink" x="0px" y="0px"
	 viewBox="0 0 512 323.3" style="enable-background:new 0 0 512 323.3;" xml:space="preserve">
<style type="text/css">
	.st0{fill:#142459;}
</style>
<path class="st0" d="M189,80c-49.6,27.2-37.8,73-10.3,83.3c35.1,13.1,46.4-26.2,24-34.6c-8.4-3.1-17.7,1.1-20.9,9.5
	c-0.6,1.6-0.9,3.3-0.9,4.9c-1.2-3.4-1.3-7.3,0.1-11c3.1-8.4,12.5-12.6,20.9-9.5c0.5,0.2,0.9,0.5,1.4,0.7
	c46.5-33.4,98.6,36.1,32.6,104.5C342.5,134.1,252.1,45.4,189,80"/>
<path class="st0" d="M200,170.3c-23,12.6-18.6,34.2-5.8,38.9c17.9,6.7,21.9-12.7,12.2-16.4c-3.9-1.5-8.2,0.5-9.7,4.4
	c-0.3,0.8-0.4,1.5-0.4,2.3c-0.6-1.6-0.6-3.4,0-5.1c1.5-3.9,5.8-5.8,9.7-4.4c0.2,0.1,0.4,0.2,0.7,0.3c19.8-16.1,45.6,16.7,15.1,48.4
	C271.1,195.3,229.2,154.3,200,170.3"/>
<path class="st0" d="M240.2,124.4c-18.1-7.9-28.8,3-28.8,3s4.6,3,7.1,9c6.1-1,21.7,3.5,30.1,15.3c19.7,27.5-2.4,60.2-2.4,60.2
	C267.2,187.8,269.4,137.1,240.2,124.4"/>
<path class="st0" d="M242.2,152.7c-9-9.3-17.2-11-22.4-11c0.6,5.4-0.9,12.4-7.1,20.9c26.9-5.9,40.1,25,33.8,45.8
	C246.4,208.4,265,176.3,242.2,152.7"/>
<path class="st0" d="M210.6,192.8c0,0,6.2-5.3,15.6,1.2c9.5,6.5,9.1,25.2-2.5,40c9.7-21-0.7-32.1-9.6-31.6
	C215.6,195.6,210.6,192.8,210.6,192.8"/>
<path class="st0" d="M286.4,166.9c0,0,25.8-32.1,8.5-65.7c-17.3-33.6-40.8-42.4-33.7-65c7.2-22.6,36.5-13.1,31.5,4.2
	c-1.4-12-20.8-14.1-25.4,0.2c-4.2,13.1,12.2,31.7,31.8,20C320.2,48,311.5,5.7,277.5,5.7c-33,0-49.5,35.9-26.5,60.2
	C274,90.3,308.3,118.5,286.4,166.9"/>
<path class="st0" d="M282.7,69.5c0,0,48.1,46.5,6.7,97.5c41.7-40.7,25.8-84,8.8-100.5C293.3,70.7,282.7,69.5,282.7,69.5"/>
<path class="st0" d="M232.7,45.8c0,0-37.3,0.2-51.8,30.6c24.6-15.9,47.9-14.8,67-5.7C233,58.2,232.7,45.8,232.7,45.8"/>
<path class="st0" d="M261.4,230.8c0,0-4.8-36.3,34.3-54.3c33.3-15.3,47.4-45.5,30.7-64c-3.3-3.7-3.5-9.4-0.5-13.4
	c0.1-0.1,0.1-0.2,0.2-0.3c4.5-5.8,13.2-5.7,17.4,0.4c8.2,11.8,18.1,33.6,2.5,57.5C322.9,192.3,269.8,182,261.4,230.8"/>
<path class="st0" d="M284.4,175.7c0,0,34.1-21.7,38.1-52.9c0.3-2.3,3.5-2.4,4.1-0.2C331.2,139.4,321.9,160.8,284.4,175.7"/>
<path class="st0" d="M267.5,231c0,0,6.6-24.8,58.7-23.5c7.7,0.2,13.6-7,11.7-14.5c0-0.1-0.1-0.3-0.1-0.4c-1.7-6.3-8.3-9.8-14.5-8
	C305,189.8,265.5,204.3,267.5,231"/>
<path class="st0" d="M166.5,162.6c0,0-3.2,18.3,14.1,23.1c1.8-9.4,10.4-15,10.4-15S177.4,170.9,166.5,162.6"/>
<path class="st0" d="M323.4,99.1c0,0,4.4-13.3,24-19.3c11.8-3.6,18.6-0.3,22.2,2.8c0.8,0.7,0,2-1,1.6c-3.8-1.7-9.4-3.2-14,0
	c-9.5,6.7-6.4,19.2,8.8,22.5c15.6,3.4,32.6-17.3,18.6-34.3C368.8,56.6,328.6,61.6,323.4,99.1"/>
<path class="st0" d="M318.6,88.4c0,0,7.8-24.7,32.2-30.8c24.5-6.1,32.5-28.7,20.4-44.5c-12.1-15.8-42.6-12.7-44.3,10.6
	c-1.7,23.3,38.9,20.9,31.4-5.3c10.7,13.5-0.6,24.5-10.5,27.2c-4.9,1.4-9.7,3.4-13.4,6.9C325,61.2,318.7,76,318.6,88.4"/>
<path class="st0" d="M316.1,83.9c0,0-7.9-23.6,1.1-43.7c1.2-2.8,4.6-4.1,7.4-2.7c0.1,0,0.1,0.1,0.2,0.1c3.1,1.5,4.1,5.5,2,8.2
	C321.6,52.2,315.1,64.3,316.1,83.9"/>
<path class="st0" d="M178.6,72.4c0,0,11.7-28.5,53-32.7c1.3-13.4,7.6-21.8,7.6-21.8S195.8,22.6,178.6,72.4"/>
<path class="st0" d="M10.2,271.5v48H2.7v-69.2l56.7,55c-0.1-1.4-0.1-3-0.1-4.5v-48h7.5v69l-56.6-54.9
	C10.2,268.4,10.2,270,10.2,271.5"/>
<polygon class="st0" points="343,319.8 335.2,319.8 335.2,257.4 313.9,257.4 313.9,250.3 364.2,250.3 364.2,257.4 343,257.4 "/>
<path class="st0" d="M111.9,270.3c-15.7,0-27,10.6-27,25.3c0,14.7,11.4,25.3,27,25.3c15.7,0,27.2-10.6,27.2-25.2
	C139,281,127.6,270.3,111.9,270.3 M132.4,295.7c0,11-8.8,19.3-20.5,19.3c-11.7,0-20.5-8.3-20.5-19.4c0-11.1,8.8-19.4,20.5-19.4
	C123.6,276.2,132.4,284.5,132.4,295.7"/>
<path class="st0" d="M181.5,295.1c4.2-1.7,6.6-5.6,6.6-11c0-8.7-5.4-13.2-15.6-13.2h-15.4v49.4h16.2c10.2,0,15.7-4.7,15.7-13.5
	C189,301.2,186.1,296.8,181.5,295.1 M163.4,298h9.7c3.2,0,5.8,0.9,7.4,2.5c1.4,1.4,2.1,3.3,2.1,5.7c0,5.5-3,8-9.5,8h-9.7V298z
	 M172.8,292.4h-9.3v-15.5h9c6.5,0,9.3,2.3,9.3,7.7C181.8,289.5,178.4,292.4,172.8,292.4"/>
<polygon class="st0" points="218.2,270.9 211.8,270.9 211.8,320.3 239.5,320.3 239.5,314.3 218.2,314.3 "/>
<polygon class="st0" points="264.8,298.1 285.1,298.1 285.1,292.6 264.8,292.4 264.8,276.8 285.8,276.8 285.8,270.9 258.4,270.9 
	258.4,320.3 285.8,320.3 285.8,314.3 264.8,314.3 "/>
<rect x="384.5" y="270.9" class="st0" width="6.4" height="49.4"/>
<path class="st0" d="M434.1,270.9h-17.4v49.4h17.4c16.9,0,27.8-9.7,27.8-24.6C461.9,280.6,451,270.9,434.1,270.9 M423.1,276.8h10.9
	c13.2,0,21.5,7.2,21.5,18.8c0,11.6-8.2,18.7-21.5,18.7h-10.9V276.8z"/>
<polygon class="st0" points="489,314.3 489,298.1 509.3,298.1 509.3,292.6 489,292.4 489,276.8 510,276.8 510,270.9 482.6,270.9 
	482.6,320.3 510,320.3 510,314.3 "/>
</svg>
