<svg  viewBox="0 0 512 318" xmlns="http://www.w3.org/2000/svg"><path d="m497.63 86.68c-20.6-14.01-30.96.24-97.37 13.45v-16.09c0-23.47-17.06-48.48-38.79-57-30.92-5.36-138.32-57.84-321.65-.38l-1.04.38c-21.72 8.52-38.78 33.58-38.78 57v117.57c0 12.79 5.09 23.33 14.37 29.63 20.64 14.01 30.77-.19 97.37-13.45v16.04c0 23.47 17.06 48.48 38.79 57 34.17 5.93 138.32 57.84 321.65.38l1.04-.38c21.77-8.51 38.79-33.58 38.79-57v-117.57c-.01-12.8-5.1-23.28-14.38-29.58zm-371.52 0c-22.81 15.47-11.31 43.5-14.37 99.23-55.28 10.44-76.35 21.4-79.65 19.56-1.6-1.79-.24-8.37-.75-121.38 0-10.39 8.91-23.7 18.47-27.7 106.7-33.34 193.89-33.34 300.63 0 9.57 4.04 18.47 17.35 18.47 27.7v21.3c-122.86 16.22-202.23-24.31-223.67-24.31-7.06-.05-13.66 1.83-19.13 5.6zm242.81 50.31c-.47 57.14.75 66.64-.66 68.38-5.37 3.2-97.6-40.4-225.13-24.5.47-57.47-.75-66.64.66-68.38 5.42-3.29 96.99 40.49 225.13 24.5zm111.74 96.83c0 10.39-8.91 23.7-18.47 27.7-106.7 33.34-193.89 33.34-300.63 0-9.57-4.04-18.47-17.35-18.47-27.75v-21.21c68.48-9.03 133.23-2.02 207.51 21.21 11.78 4.47 24.93 4.56 35.3-2.49 22.81-15.47 11.31-43.5 14.37-99.23 52.74-9.97 76.63-21.3 79.65-19.56 1.64 1.84.22 9.17.74 121.33z" fill="#fff"/></svg>