<svg  viewBox="0 0 512 80"  xmlns="http://www.w3.org/2000/svg"><path d="m93.25 59.68c-7.51 0-33.58-15.39-80.63-.78-3.29 1.24-6.54.99-8.97-.64-2.36-1.59-3.65-4.25-3.65-7.48v-29.72c0-10.57 10.48-14.79 10.12-14.51 47.59-14.82 82.17.15 81.81.11 5.54 2.16 9.87 8.48 9.87 14.4-.97 26.92 2.43 33.09-3.65 37.21-1.43.95-3.11 1.41-4.9 1.41m-80.59-45.64c-2.43 1.03-4.68 4.4-4.68 7.02.14 28.55-.21 30.25.18 30.68.43.25 2.32-.43 1.97-.35 47.63-14.83 82.17.14 81.81.11 1.86.74 1.9.18 1.9-.71v-29.73c0-2.62-2.25-5.99-4.68-7.02-27.19-8.41-49.4-8.41-76.5 0" fill="#f93882"/><path d="m126.51 21.73c-2.43-1.63-5.69-1.88-8.97-.64-5.44 1.7-10.66 3.01-15.77 4.04v8.05c10.23-1.92 18.92-4.79 18.56-4.68 1.07-.43 1.64-.28 1.72-.25.32.35.18 31.03.18 30.68 0 2.62-2.25 5.99-4.68 7.02-27.14 8.44-49.31 8.44-76.45 0-2.43-1.03-4.68-4.4-4.68-7.02.14-28.62-.21-30.22.18-30.68 1.32-.82 24.82 10.21 57.25 6.21v-8.02c-17.41 2.31-33.9.5-52.78-5.36-6.61-2.48-12.62 1.17-12.62 8.12v29.72c0 10.57 10.51 14.83 10.12 14.51 47.59 14.83 82.17-.14 81.81-.11 5.54-2.16 9.87-8.48 9.87-14.4-1.06-26.94 2.34-33.11-3.74-37.19" fill="#03a9f4"/><g fill="#263238"><path d="m161.83 32.2v12.41h-2.79v-35.93h15.91c15.73 0 15.73 23.52 0 23.52zm0-20.96v18.44h13.09c12.05 0 12.05-18.44 0-18.44z"/><path d="m214.11 44.65v-4.58c-4.54 8.05-20.67 6.7-20.67-6.21v-14.64h2.54v14.58c0 12.17 18.06 11.56 18.06-.46v-14.12h2.54v25.43z"/><path d="m226.8 8.68v16.14c4.76-9.43 23.46-8.16 23.46 7.13 0 15.04-18.09 16.78-23.46 7.09v5.6h-2.5v-35.96zm.08 23.23c0 14.01 20.92 14.54 20.92.04-.01-14.72-20.92-13.87-20.92-.04z"/><path d="m260.06 8.68v35.96h-2.54v-35.96z"/><path d="m292.81 19.25v25.36h-2.54v-5.39c-2.5 3.97-6.33 5.82-10.48 5.82-17.23 0-17.41-26.1 0-26.1 4.15 0 8.33 1.92 10.48 5.85v-5.53h2.54zm-13.01 23.34c14.23 0 14.23-21.21 0-21.21-14.02 0-13.88 21.21 0 21.21z"/><path d="m327.14 44.65h-2.79l-4.15-11.1-3.11-9.86-3.22 9.9-4.15 11.03h-2.79l-9.12-25.36h2.79l7.72 22.45 7.83-22.45h1.82l7.76 22.45 7.65-22.45h2.79z"/><path d="m342.8 32.2v12.41h-2.79v-35.93h15.91c15.73 0 15.73 23.52 0 23.52zm0-20.96v18.44h13.09c12.05 0 12.05-18.44 0-18.44z"/><path d="m376.84 19.25.11 4.5c2.32-4.97 9.4-6.06 13.98-3.3l-1.14 2.06c-5.33-3.23-12.8.5-12.8 7.31v14.79h-2.54v-25.36z"/><path d="m393.75 31.98c0-17.59 26-17.59 26 0 0 17.38-26 17.35-26 0zm23.53 0c0-14.44-21.02-14.44-21.02 0 0 14.08 21.02 14.08 21.02 0z"/><path d="m429.65 19.22v27.88c.04 4.89-1.14 8.69-6.83 8.69-1.75 0-3.04-.43-4.61-1.24l.72-2.16c1.18.67 2.54 1.03 3.9 1.03 3.93 0 4.36-2.87 4.36-6.31v-27.89zm-3.29-8.48c0 2.66 4.08 2.66 4.08 0s-4.08-2.66-4.08 0z"/><path d="m436.16 31.95c0-17.27 27.53-18.09 25.64 1.17h-23.03c.97 10.96 14.95 11.67 19.63 5.53l1.82 1.45c-6.5 8.41-24.06 6.25-24.06-8.15zm23.35-1.03c-.11-12.84-19.52-13.37-20.77 0z"/><path d="m490.37 41.1c-7.58 7.52-22.46 3.62-22.46-9.15 0-13.02 14.91-16.49 22.46-9.15l-1.64 1.6c-5.79-5.75-18.34-3.44-18.34 7.55 0 10.85 12.26 13.41 18.27 7.45z"/><path d="m502.45 11.63v7.66h8.69v2.09h-8.69c.54 15.61-1.97 21.32 4.72 21.32 1.25 0 2.65-.43 3.93-1.03l.89 2.06c-1.61.78-3.22 1.28-4.83 1.28-10.48 0-6.26-11-7.19-23.62h-5.44v-2.13h5.44v-7.38z"/></g><path d="m166.27 68.69h-2.22l-4.76-11.39h2.43l3.43 8.83 3.47-8.83h2.4z" fill="#1976d2"/><path d="m188.04 68.66h-2.57l-3.33-3.8h-2.07v3.8h-2.15v-11.35c4.54 0 9.55-.74 9.55 3.76 0 1.56-.72 3.12-2.9 3.55l3.47 3.87c0-.01 0 .17 0 .17zm-7.97-9.33v3.62c1.5-.25 5.22.89 5.22-1.81s-3.72-1.56-5.22-1.81z" fill="#1976d2"/><path d="m213.43 66.6v2.13c-.86 0-1.79-.18-2.15-1.49-.75 1.21-2.07 1.6-3.25 1.6-5.65 0-5.4-5.07-2.79-5.96-2.47-.78-2.25-5.71 2.82-5.71 2 0 4.15.74 4.18 3.19h-2.04c0-1.03-1.04-1.38-2.18-1.38-2.93 0-3 3.05 0 3.05h5.36v1.67h-.93c.05.99-.48 2.9.98 2.9zm-5.47.28c3.4 0 2.11-2.66 2.4-3.19-.82 0-1.64 0-2.47 0-3.11 0-3.08 3.19.07 3.19z" fill="#e91e63"/><path d="m237.71 66.53h-5.97l-.97 2.13h-2.32l5.11-11.31h2.36l5.11 11.31h-2.36zm-2.97-6.81-2.11 4.82h4.26z" fill="#e91e63"/><path d="m257.7 68.66h-2.57l-3.33-3.8h-2.07v3.8h-2.15v-11.35c4.54 0 9.55-.74 9.55 3.76 0 1.56-.72 3.12-2.9 3.55l3.47 3.87zm-7.98-9.33v3.62c1.5-.25 5.22.89 5.22-1.81.04-2.7-3.71-1.56-5.22-1.81z" fill="#e91e63"/><path d="m280.01 60.07c-1.04-1.7-5.08-1.74-5.08.25 0 2.48 7.15.11 7.15 5.04 0 4.5-8.12 4.89-9.76.82l1.79-.92c1 2.52 5.83 2.31 5.83.11 0-2.8-7.12-.35-7.12-5.11 0-3.97 7.26-4.43 8.9-1.06z" fill="#1976d2"/><path d="m300.53 63.05c-.07 7.91-11.73 7.84-11.73 0 .01-8.01 11.84-7.91 11.73 0zm-9.61.08c.14 5.21 7.4 5.18 7.47 0 .11-5.5-7.58-5.4-7.47 0z" fill="#1976d2"/><path d="m309.83 57.34v9.36h5.86v1.99h-8.01v-11.31h2.15z" fill="#1976d2"/><path d="m332.14 57.34c-.54 3.09 2.07 11.56-4.93 11.56-7.29 0-4.51-8.76-5.08-11.56h2.15c.5 3.97-1.5 9.61 2.97 9.61 4.18 0 2.36-5.46 2.79-9.61z" fill="#1976d2"/><path d="m342.76 59.26h-3.61v-1.95h9.4v1.95h-3.61v9.4h-2.15v-9.4z" fill="#1976d2"/><path d="m355.39 68.66v-11.32h2.15v11.31h-2.15z" fill="#1976d2"/><path d="m370.8 68.91c-7.97 0-7.72-11.81 0-11.81 7.79 0 7.86 11.81 0 11.81zm0-1.95c5.04 0 4.97-7.91 0-7.91-5.01 0-5.04 7.91 0 7.91z" fill="#1976d2"/><path d="m391.32 57.31h2.15v11.35h-1.32l-6.01-7.66v7.63h-2.15v-11.32h1.75l5.58 7.02z" fill="#1976d2"/><path d="m408.2 60.07c-1.04-1.7-5.08-1.74-5.08.25 0 2.48 7.15.11 7.15 5.04 0 4.5-8.12 4.89-9.76.82l1.79-.92c1 2.52 5.83 2.31 5.83.11 0-2.8-7.12-.35-7.12-5.11 0-3.97 7.26-4.43 8.9-1.06z" fill="#1976d2"/></svg>