<svg  viewBox="0 0 512 512" xmlns="http://www.w3.org/2000/svg"><path fill="#ffffff" d="m256 0c-141.39 0-256 114.61-256 256s114.61 256 256 256 256-114.61 256-256-114.61-256-256-256zm105.48 207.38c-48.26 139.27-44.15 137.11-50.85 141.58-8.01 5.34-17.53 1.77-21.46-6.53l-33.12-75.34-33.36 75.34c-2.88 6.09-8.37 9.09-13.76 9.09-5.36-.29-10.65-3.33-12.6-8.86-46.96-139.5-46.65-134.9-46.65-139.95 0-9.08 7.91-15.16 15.4-15.16 5.96 0 11.57 3.25 13.53 9.09l34.75 105.43c31.63-73.79 29.2-74.89 35.68-79.42 5.71-3.99 16.37-3.73 21 6.64l28.68 72.08 34.53-104.73c1.95-5.88 7.85-9.09 13.76-9.09 3.74 0 15.16 6.14 15.16 15.16 0 1.4-.22 2.96-.69 4.67z"/></svg>
