<svg viewBox="0 0 512 512" xmlns="http://www.w3.org/2000/svg"><path fill="#ffffff" d="m281.7 203.23c-2.65-2.17-5.36-3.26-8.16-3.26h-51.09v52.94h51.09c13.87 0 26.38-34.64 8.16-49.68z"/><path fill="#ffffff" d="m256 0c-141.39 0-256 114.61-256 256s114.61 256 256 256 256-114.61 256-256-114.61-256-256-256zm31.3 295.13c0-12.05-8.55-18.2-21.23-18.2h-43.62c-.93 43.37 2.26 48.89-3.38 55.52-7.41 8.68-25.77 2.26-25.77-10.26v-134.83c0-8.06 6.02-14.22 14.22-14.22h67.17c15.73 0 31.17 8.76 40.01 24.49 13.36 23.85 4.91 52.27-16.22 66 20.27 14.17 14.53 31.29 18.66 45.14 1.53 5.17 5.49 3.67 8.98 9.68 12.8 22.11-38.82 33.79-38.82-23.32z"/></svg>