<svg  viewBox="0 0 512 512" xmlns="http://www.w3.org/2000/svg"><path fill="#ffffff" d="m256 0c-141.39 0-256 114.61-256 256s114.61 256 256 256 256-114.61 256-256-114.61-256-256-256zm58.82 329.65c-12.13 6.06-25.04 9.1-38.72 9.1-95.36 0-109.94-119.07-43.15-156.16 23.18-12.87 55.54-14.91 81.63-1.52 15.26 7.88 4.27 33.79-13.76 24.26-22.26-10.42-57.25-7.02-71.84 20.88-10.25 19.57-9.4 53.35 8.28 70.32 17.29 16.61 46.51 17.59 63.57 8.86 13.55-6.01 21.22 4.84 21.22 12.83 0 2.49-2.44 9.2-7.23 11.43z"/></svg>